<svg width="448" height="232" viewBox="0 0 448 232" fill="none" xmlns="http://www.w3.org/2000/svg">
<path d="M141.326 61.1707V21.4038H169.853V27.8367H148.864V38.4932H167.773V44.926H148.864V61.1707H141.326Z" fill="white"/>
<path d="M176.774 26.016V19.2582H183.857V26.016H176.774ZM176.774 61.1694V30.6945H183.857V61.1694H176.774Z" fill="white"/>
<path d="M192.5 61.1694V19.2582H199.583V61.1694H192.5Z" fill="white"/>
<path d="M221.417 61.8831C218.614 61.9724 215.829 61.3933 213.294 60.1937C211.141 59.0148 209.431 57.1673 208.42 54.9304C207.316 52.5912 206.796 49.5372 206.796 45.9634C206.796 42.3896 207.316 39.2706 208.42 36.9314C209.414 34.6995 211.131 32.8679 213.294 31.7331C215.813 30.4812 218.606 29.8781 221.417 29.9787C223.969 29.8997 226.499 30.4816 228.76 31.6681C230.796 32.8069 232.396 34.5897 233.309 36.7364C234.284 39.0107 234.804 41.9347 234.804 45.5735V47.6528H214.009C214.068 49.2924 214.374 50.9136 214.919 52.4613C215.361 53.6636 216.182 54.6898 217.258 55.3853C218.566 56.0412 220.02 56.3543 221.482 56.295C222.315 56.2873 223.145 56.1782 223.951 55.9701C224.693 55.7471 225.379 55.3708 225.966 54.8655C226.574 54.3906 227.045 53.7627 227.33 53.0461C227.685 52.2488 227.862 51.3842 227.85 50.5119H234.804C234.856 52.2592 234.5 53.9946 233.764 55.5802C233.129 56.9766 232.144 58.1853 230.905 59.0891C229.645 60.0495 228.21 60.7557 226.681 61.1684C224.967 61.6465 223.196 61.887 221.417 61.8831ZM214.139 42.7145H227.395C227.423 41.6184 227.291 40.5241 227.006 39.4655C226.741 38.656 226.322 37.9056 225.771 37.2563C225.275 36.6711 224.621 36.2423 223.886 36.0217C223.092 35.7503 222.256 35.6184 221.417 35.6318C220.104 35.6057 218.799 35.849 217.583 36.3466C216.577 36.862 215.759 37.6803 215.244 38.6858C214.65 39.9566 214.277 41.3188 214.139 42.7145Z" fill="white"/>
<path d="M254.688 61.8841C251.947 61.9752 249.226 61.3952 246.76 60.1946C244.644 59.0086 242.977 57.159 242.017 54.9314C240.977 52.5921 240.457 49.5381 240.457 45.9643C240.457 42.3905 240.977 39.2715 242.082 36.9323C243.006 34.6979 244.684 32.8583 246.825 31.734C249.253 30.4876 251.96 29.8836 254.688 29.9796C256.537 29.9556 258.378 30.2186 260.146 30.7593C261.64 31.2133 263.015 31.9896 264.175 33.0336C265.349 34.0735 266.243 35.3918 266.775 36.8673C267.404 38.5494 267.713 40.3347 267.684 42.1306H260.471C260.519 40.9061 260.297 39.6862 259.821 38.5568C259.447 37.6493 258.754 36.9099 257.872 36.4775C257.038 35.9695 256.099 35.66 255.127 35.5729C254.154 35.4858 253.175 35.6234 252.264 35.9751C251.353 36.3268 250.536 36.8832 249.874 37.6013C249.213 38.3193 248.726 39.1798 248.45 40.1163C247.905 41.8823 247.663 43.7278 247.735 45.5745V46.3542C247.672 48.2005 247.913 50.0446 248.45 51.8124C248.821 53.1204 249.622 54.265 250.724 55.0613C251.944 55.8389 253.373 56.2244 254.818 56.166C255.973 56.2084 257.117 55.939 258.132 55.3862C259.003 54.8895 259.705 54.1424 260.146 53.2419C260.616 52.1337 260.838 50.9361 260.796 49.7331H267.684C267.707 51.4862 267.399 53.2279 266.775 54.8664C266.226 56.3173 265.36 57.6272 264.24 58.7001C263.069 59.7775 261.669 60.5771 260.146 61.0394C258.389 61.6342 256.543 61.92 254.688 61.8841Z" fill="white"/>
<path d="M288.413 61.8831C285.527 61.9628 282.661 61.385 280.031 60.1936C277.826 59.041 276.067 57.19 275.027 54.9304C273.821 52.099 273.245 49.0394 273.338 45.9633C273.338 42.2595 273.922 39.2705 275.027 36.9313C276.049 34.6756 277.816 32.8401 280.031 31.733C282.646 30.4896 285.519 29.8881 288.413 29.9786C291.792 29.9786 294.587 30.5634 296.796 31.733C299.011 32.8401 300.778 34.6756 301.8 36.9313C302.904 39.2705 303.489 42.2595 303.489 45.9633C303.582 49.0394 303.005 52.099 301.8 54.9304C300.76 57.19 299 59.041 296.796 60.1936C294.17 61.3984 291.301 61.9767 288.413 61.8831ZM288.413 56.1C289.981 56.1519 291.533 55.7696 292.897 54.9953C294.088 54.2484 294.965 53.0934 295.366 51.7464C295.932 50.0063 296.196 48.1822 296.146 46.3532V45.5085C296.196 43.6794 295.932 41.8554 295.366 40.1152C294.945 38.7787 294.072 37.6302 292.897 36.8663C291.533 36.092 289.981 35.7098 288.413 35.7617C286.844 35.6921 285.287 36.0756 283.93 36.8663C282.734 37.6231 281.838 38.7714 281.395 40.1152C280.83 41.8554 280.566 43.6794 280.616 45.5085V46.3532C280.566 48.1822 280.83 50.0063 281.395 51.7464C281.823 53.0982 282.723 54.2512 283.93 54.9953C285.287 55.7861 286.844 56.1696 288.413 56.1Z" fill="white"/>
<path d="M310.637 26.016V19.2582H317.72V26.016H310.637ZM310.637 61.1694V30.6945H317.72V61.1694H310.637Z" fill="white"/>
<path d="M326.427 61.1691V30.6941H332.34L332.925 34.7228H333.315C334.055 33.8205 334.882 32.9935 335.784 32.2536C336.768 31.5334 337.867 30.9843 339.033 30.6292C340.326 30.1714 341.691 29.9513 343.062 29.9794C344.827 29.9646 346.576 30.3187 348.196 31.019C349.702 31.734 350.933 32.9201 351.705 34.3979C352.638 36.3176 353.085 38.4377 353.004 40.5709V61.1691H345.856V41.8704C345.885 40.9664 345.753 40.0644 345.466 39.2063C345.258 38.5352 344.877 37.9303 344.362 37.4519C343.874 36.977 343.268 36.6406 342.607 36.4772C341.842 36.2874 341.056 36.2 340.268 36.2173C339.057 36.1868 337.862 36.5024 336.824 37.127C335.804 37.7338 334.972 38.6109 334.42 39.6612C333.778 40.8109 333.464 42.1142 333.51 43.4299V61.1691H326.427Z" fill="white"/>
<path d="M141.326 116.4V76.6336H169.853V83.0665H148.864V93.723H167.773V100.156H148.864V116.4H141.326Z" fill="white"/>
<path d="M188.601 117.115C185.715 117.194 182.848 116.617 180.218 115.425C178.014 114.273 176.254 112.422 175.215 110.162C174.045 107.823 173.525 104.769 173.525 101.195C173.525 97.6211 174.045 94.5021 175.215 92.1629C176.236 89.9072 178.003 88.0717 180.218 86.9646C182.833 85.7212 185.707 85.1197 188.601 85.2102C191.98 85.2102 194.774 85.795 196.984 86.9646C199.199 88.0717 200.966 89.9072 201.987 92.1629C203.092 94.5021 203.677 97.4912 203.677 101.195C203.77 104.271 203.193 107.331 201.987 110.162C200.948 112.422 199.188 114.273 196.984 115.425C194.358 116.63 191.488 117.208 188.601 117.115ZM188.601 111.332C190.169 111.384 191.721 111.001 193.085 110.227C194.256 109.459 195.128 108.312 195.554 106.978C196.12 105.238 196.383 103.414 196.334 101.585V100.74C196.383 98.911 196.12 97.087 195.554 95.3469C195.11 94.0223 194.242 92.8807 193.085 92.0979C191.721 91.3237 190.169 90.9414 188.601 90.9933C187.031 90.9237 185.475 91.3072 184.117 92.0979C182.922 92.8547 182.026 94.0031 181.583 95.3469C181.018 97.087 180.754 98.911 180.803 100.74V101.585C180.754 103.414 181.018 105.238 181.583 106.978C182.011 108.33 182.91 109.483 184.117 110.227C185.475 111.018 187.031 111.401 188.601 111.332Z" fill="white"/>
<path d="M220.507 117.115C217.583 117.115 215.179 116.336 213.359 114.711C211.54 113.087 210.63 110.358 210.63 106.524V85.9256H217.713V105.224C217.7 106.123 217.81 107.019 218.038 107.888C218.272 108.547 218.649 109.147 219.143 109.643C219.665 110.105 220.288 110.438 220.962 110.617C221.704 110.811 222.47 110.899 223.236 110.877C224.45 110.927 225.65 110.61 226.681 109.968C227.736 109.356 228.593 108.453 229.15 107.369C229.763 106.231 230.076 104.957 230.06 103.665V85.9256H237.078V116.401H231.229L230.645 112.372H230.255C229.55 113.305 228.718 114.136 227.785 114.841C226.797 115.569 225.7 116.139 224.536 116.531C223.233 116.939 221.873 117.137 220.507 117.115Z" fill="white"/>
<path d="M245.785 116.402V85.9274H251.699L252.284 89.9561H252.673C253.413 89.0539 254.24 88.2268 255.143 87.4869C257.28 86.0034 259.819 85.2098 262.421 85.2127C264.186 85.1979 265.934 85.5521 267.554 86.2523C269.06 86.9673 270.292 88.1535 271.063 89.6312C271.997 91.5509 272.443 93.671 272.363 95.8042V116.402H265.215V97.1038C265.243 96.1997 265.111 95.2977 264.825 94.4396C264.616 93.7685 264.235 93.1636 263.72 92.6852C263.232 92.2103 262.627 91.8739 261.966 91.7105C261.201 91.5208 260.414 91.4334 259.627 91.4506C258.415 91.4201 257.221 91.7357 256.182 92.3603C255.178 92.9867 254.351 93.8589 253.778 94.8945C253.165 96.0551 252.852 97.3508 252.868 98.6633V116.402H245.785Z" fill="white"/>
<path d="M291.403 117.114C289.143 117.16 286.915 116.575 284.969 115.425C283.06 114.184 281.602 112.361 280.811 110.226C279.771 107.822 279.316 104.833 279.316 101.129C279.219 98.0498 279.727 94.9814 280.811 92.0972C281.622 89.9737 283.076 88.1564 284.969 86.8989C286.787 85.7834 288.88 85.1982 291.013 85.2095C292.303 85.2212 293.589 85.3737 294.847 85.6643C295.942 85.9533 296.977 86.4376 297.901 87.0939C298.785 87.7403 299.554 88.5311 300.175 89.4331H300.5V74.488H307.583V116.399H301.735L301.15 112.371H300.76C299.812 113.896 298.463 115.132 296.861 115.944C295.151 116.735 293.286 117.135 291.403 117.114ZM293.612 111.006C295.019 111.087 296.413 110.698 297.576 109.901C298.638 109.108 299.414 107.99 299.785 106.717C300.324 105.084 300.566 103.368 300.5 101.649V100.869C300.515 99.5163 300.384 98.1656 300.11 96.8406C299.911 95.749 299.491 94.7096 298.875 93.7867C298.323 93.0111 297.586 92.3858 296.731 91.9673C295.761 91.4952 294.689 91.2719 293.612 91.3175C292.152 91.2304 290.7 91.5933 289.453 92.3571C288.381 93.1126 287.601 94.2138 287.244 95.4761C286.786 97.2145 286.568 99.007 286.594 100.804V101.649C286.576 103.425 286.795 105.194 287.244 106.912C287.636 108.158 288.408 109.248 289.453 110.031C290.72 110.74 292.162 111.078 293.612 111.006Z" fill="white"/>
<path d="M324.088 117.117C323.106 117.091 322.127 116.982 321.164 116.792C320.043 116.587 318.966 116.191 317.979 115.622C316.919 114.995 316.045 114.098 315.445 113.023C314.745 111.635 314.41 110.092 314.47 108.539C314.389 106.7 314.89 104.881 315.9 103.341C316.87 101.915 318.221 100.789 319.799 100.092C321.72 99.2358 323.756 98.6665 325.842 98.4027C328.385 98.0756 330.947 97.9237 333.51 97.9479V95.4137C333.523 94.6168 333.391 93.8241 333.12 93.0745C332.806 92.372 332.284 91.7824 331.625 91.385C330.604 90.9369 329.49 90.7366 328.376 90.8002C327.249 90.7604 326.124 90.9368 325.062 91.3201C324.369 91.551 323.774 92.0088 323.373 92.6196C323.059 93.0775 322.899 93.6241 322.918 94.1791V94.9589H316.03C316.03 94.7639 315.965 94.569 315.965 94.3741V93.6593C315.967 92.021 316.541 90.4349 317.59 89.1758C318.715 87.8162 320.202 86.8025 321.878 86.2517C323.942 85.5181 326.122 85.1658 328.311 85.2121C330.663 85.129 333.007 85.527 335.199 86.3817C336.854 87.0413 338.262 88.1995 339.228 89.6956C340.171 91.2621 340.645 93.0662 340.593 94.8939V109.254C340.556 109.558 340.596 109.866 340.71 110.15C340.823 110.434 341.007 110.684 341.243 110.879C341.642 111.162 342.117 111.321 342.607 111.333H344.427V116.207L342.802 116.727C341.909 116.946 340.993 117.055 340.073 117.052C339.138 117.062 338.21 116.885 337.344 116.532C336.588 116.215 335.904 115.751 335.329 115.167C334.797 114.525 334.419 113.769 334.225 112.958H333.835C333.15 113.77 332.364 114.49 331.496 115.102C330.52 115.766 329.445 116.271 328.311 116.597C326.932 116.954 325.512 117.128 324.088 117.117ZM326.232 111.333C327.294 111.341 328.349 111.165 329.351 110.814C330.19 110.498 330.951 110.003 331.579 109.363C332.207 108.723 332.689 107.954 332.99 107.11C333.331 106.172 333.507 105.183 333.51 104.186V102.821C331.532 102.811 329.556 102.941 327.597 103.211C326.077 103.397 324.614 103.907 323.308 104.706C322.803 105.049 322.395 105.516 322.122 106.062C321.849 106.608 321.72 107.215 321.748 107.825C321.722 108.462 321.88 109.094 322.203 109.644C322.571 110.218 323.12 110.653 323.763 110.879C324.55 111.185 325.388 111.339 326.232 111.333Z" fill="white"/>
<path d="M357.748 117.116C356.169 117.198 354.602 116.79 353.264 115.947C352.217 115.264 351.419 114.261 350.99 113.088C350.549 111.925 350.329 110.691 350.34 109.449V91.7096H346.636V85.9265H350.47L351.77 77.4143H357.358V85.9265H362.687V91.7096H357.358V108.734C357.316 109.085 357.355 109.442 357.471 109.776C357.586 110.11 357.777 110.414 358.027 110.664C358.277 110.915 358.581 111.105 358.915 111.221C359.25 111.336 359.606 111.375 359.957 111.333H362.687V116.207L361.257 116.596L359.438 116.986L357.748 117.116Z" fill="white"/>
<path d="M369.055 81.2458V74.488H376.072V81.2458H369.055ZM369.055 116.399V85.9243H376.072V116.399H369.055Z" fill="white"/>
<path d="M398.36 117.116C395.495 117.202 392.648 116.624 390.043 115.427C387.805 114.298 386.018 112.442 384.975 110.163C383.769 107.332 383.192 104.272 383.285 101.196C383.285 97.4926 383.87 94.5036 384.975 92.1643C386.004 89.8917 387.797 88.0521 390.043 86.966C392.632 85.7158 395.487 85.1137 398.36 85.2116C401.74 85.2116 404.534 85.7964 406.743 86.966C408.958 88.0731 410.725 89.9086 411.746 92.1643C412.851 94.5036 413.436 97.4926 413.436 101.196C413.529 104.272 412.952 107.332 411.746 110.163C410.707 112.423 408.947 114.274 406.743 115.427C404.117 116.631 401.248 117.21 398.36 117.116ZM398.36 111.333C399.93 111.403 401.487 111.019 402.844 110.228C404.036 109.468 404.931 108.321 405.378 106.979C405.944 105.239 406.207 103.415 406.158 101.586V100.741C406.207 98.9124 405.944 97.0884 405.378 95.3483C404.913 94.0167 404.022 92.8752 402.844 92.0993C401.46 91.3763 399.922 90.9986 398.36 90.9986C396.799 90.9986 395.261 91.3763 393.877 92.0993C392.702 92.8632 391.829 94.0117 391.408 95.3483C390.842 97.0884 390.579 98.9124 390.628 100.741V101.586C390.579 103.415 390.842 105.239 391.408 106.979C391.809 108.326 392.686 109.481 393.877 110.228C395.235 111.019 396.791 111.403 398.36 111.333Z" fill="white"/>
<path d="M420.649 116.401V85.9265H426.562L427.082 89.9552H427.537C428.242 89.0221 429.073 88.1911 430.006 87.486C430.982 86.7533 432.083 86.203 433.255 85.8615C434.547 85.3995 435.912 85.1793 437.284 85.2117C439.048 85.2045 440.795 85.5583 442.417 86.2514C443.891 86.9889 445.095 88.1709 445.861 89.6303C446.771 91.1898 447.16 93.2691 447.16 95.8032V116.401H440.013V97.1028C440.025 96.2042 439.916 95.308 439.688 94.4387C439.454 93.7796 439.076 93.1805 438.583 92.6843C438.061 92.2223 437.438 91.8886 436.764 91.7096C436.022 91.516 435.256 91.4285 434.49 91.4497C433.276 91.4 432.076 91.717 431.046 92.3594C430.008 92.9647 429.155 93.8407 428.576 94.8935C427.963 96.0542 427.65 97.3498 427.667 98.6623V116.401H420.649Z" fill="white"/>
<path d="M97.6766 8.92656C97.0268 3.01351 87.6045 0.80424 86.5648 0.544326C85.5251 0.284412 76.7526 -1.7949 66.1606 6.3924C55.5686 14.5797 51.0849 33.3585 51.0849 33.3585L50.1102 37.3872H48.7455C40.3293 37.3872 32.2568 40.7259 26.2995 46.6707C20.3422 52.6156 16.9868 60.6808 16.9696 69.0967V70.3313C16.9854 76.573 18.8355 82.6724 22.29 87.8711C25.7444 93.0699 30.6508 97.1387 36.3991 99.5716C36.1391 101.131 35.8792 102.301 35.7492 102.951C34.4496 109.383 32.0453 118.026 29.2511 124.004C26.4569 129.982 23.2728 132.646 20.0237 133.555C18.9397 133.88 17.7864 133.894 16.6951 133.595C15.6037 133.296 14.6181 132.697 13.8505 131.866C13.0057 131.086 9.82159 126.083 9.82159 126.083C9.22085 125.225 8.38878 124.556 7.42236 124.154C6.45595 123.751 5.39499 123.631 4.36314 123.809C3.90827 123.874 0.594216 124.848 0.854142 129.332C1.50396 135.245 10.9263 137.519 11.966 137.714C13.0057 137.909 21.7782 140.053 32.3702 131.866C42.9622 123.679 47.4459 104.9 47.4459 104.9L48.0957 102.041H49.9152C58.3315 102.041 66.404 98.7021 72.3613 92.7573C78.3186 86.8124 81.674 78.7472 81.6912 70.3313V69.0967C81.6862 62.7846 79.7973 56.6176 76.2665 51.3853C72.7357 46.153 67.7236 42.0934 61.8718 39.7264L62.7816 35.3079C64.0812 28.94 66.4855 20.2328 69.2797 14.3198C72.0739 8.40673 75.258 5.61265 78.5071 4.70295C79.5911 4.37842 80.7444 4.36472 81.8357 4.6634C82.9271 4.96207 83.9127 5.56114 84.6803 6.3924C85.5251 7.17214 88.7092 12.1755 88.7092 12.1755C89.3099 13.0329 90.142 13.7019 91.1084 14.1046C92.0748 14.5072 93.1358 14.6269 94.1676 14.4497C94.6875 14.3848 98.0016 13.4101 97.6766 8.92656ZM24.1175 70.3313V69.0967C24.1507 62.6203 26.7206 56.4148 31.276 51.811C35.8314 47.2072 42.0096 44.5717 48.4856 44.4698L44.2618 62.5988C44.1318 63.0537 41.2077 75.7245 41.2077 75.7245L37.8286 92.424C33.7096 90.3872 30.2426 87.2387 27.8196 83.3346C25.3966 79.4304 24.1143 74.9262 24.1175 70.3313ZM74.5432 69.0967V70.3313C74.5432 73.5653 73.9062 76.7677 72.6685 79.7556C71.4309 82.7435 69.6168 85.4583 67.3298 87.7451C65.0429 90.0319 62.3279 91.8459 59.3399 93.0836C56.3519 94.3212 53.1494 94.9582 49.9152 94.9582H49.7203L57.0632 62.5988C58.1679 57.5955 59.3375 51.8124 60.3772 46.8091C64.6063 48.802 68.1826 51.9546 70.6903 55.9C73.198 59.8455 74.5341 64.4218 74.5432 69.0967Z" fill="white"/>
<path d="M141.311 180.032V155.051H144.884V165.764H144.32C144.32 163.3 144.649 161.226 145.307 159.542C145.997 157.827 147.031 156.533 148.41 155.659C149.789 154.755 151.529 154.303 153.628 154.303H153.817C156.982 154.303 159.317 155.285 160.821 157.25C162.357 159.215 163.125 162.053 163.125 165.764V180.032H158.612V164.828C158.612 162.895 158.063 161.351 156.966 160.197C155.869 159.012 154.365 158.419 152.453 158.419C150.479 158.419 148.88 159.028 147.658 160.244C146.435 161.46 145.824 163.082 145.824 165.109V180.032H141.311Z" fill="white"/>
<path d="M182.569 180.874C180.375 180.874 178.479 180.5 176.881 179.751C175.282 179.003 173.982 178.021 172.979 176.804C171.976 175.557 171.224 174.169 170.722 172.641C170.252 171.113 170.017 169.553 170.017 167.963V167.121C170.017 165.499 170.252 163.924 170.722 162.396C171.224 160.868 171.976 159.495 172.979 158.279C173.982 157.032 175.251 156.049 176.787 155.332C178.354 154.583 180.187 154.209 182.287 154.209C185.014 154.209 187.255 154.802 189.01 155.987C190.797 157.141 192.113 158.638 192.959 160.478C193.837 162.318 194.276 164.283 194.276 166.372V168.384H171.991V165.016H190.985L189.95 166.84C189.95 165.062 189.668 163.534 189.104 162.255C188.54 160.946 187.694 159.932 186.565 159.215C185.437 158.497 184.011 158.139 182.287 158.139C180.501 158.139 179.012 158.544 177.821 159.355C176.661 160.166 175.784 161.273 175.188 162.677C174.624 164.08 174.342 165.702 174.342 167.542C174.342 169.319 174.624 170.925 175.188 172.36C175.784 173.764 176.693 174.886 177.915 175.728C179.137 176.539 180.689 176.945 182.569 176.945C184.544 176.945 186.142 176.508 187.365 175.635C188.618 174.761 189.371 173.748 189.621 172.594H193.852C193.508 174.309 192.818 175.791 191.784 177.038C190.75 178.286 189.449 179.237 187.882 179.892C186.315 180.547 184.544 180.874 182.569 180.874Z" fill="white"/>
<path d="M210.932 180.313C209.052 180.313 207.422 180.048 206.043 179.518C204.695 178.987 203.645 178.083 202.893 176.804C202.172 175.494 201.812 173.732 201.812 171.518V147.473H206.137V172.079C206.137 173.42 206.497 174.465 207.218 175.214C207.971 175.931 209.021 176.29 210.368 176.29H214.787V180.313H210.932ZM197.487 158.419V155.051H214.787V158.419H197.487Z" fill="white"/>
<path d="M228.975 180.032L234.052 155.893H240.164L246.088 180.032H242.233L236.309 155.987H237.813L232.689 180.032H228.975ZM226.671 180.032V176.477H231.89V180.032H226.671ZM225.637 180.032L218.538 155.051H222.863L229.774 180.032H225.637ZM243.173 180.032V176.477H248.391V180.032H243.173ZM245.288 180.032L251.306 155.051H255.396L249.238 180.032H245.288Z" fill="white"/>
<path d="M273.068 180.874C270.874 180.874 268.946 180.5 267.285 179.751C265.624 179.003 264.214 178.021 263.054 176.804C261.926 175.557 261.064 174.169 260.468 172.641C259.904 171.113 259.622 169.553 259.622 167.963V167.121C259.622 165.53 259.92 163.971 260.515 162.443C261.111 160.883 261.989 159.495 263.148 158.279C264.308 157.032 265.718 156.049 267.379 155.332C269.04 154.583 270.937 154.209 273.068 154.209C275.199 154.209 277.095 154.583 278.756 155.332C280.418 156.049 281.828 157.032 282.988 158.279C284.147 159.495 285.025 160.883 285.62 162.443C286.216 163.971 286.514 165.53 286.514 167.121V167.963C286.514 169.553 286.216 171.113 285.62 172.641C285.056 174.169 284.194 175.557 283.035 176.804C281.906 178.021 280.512 179.003 278.85 179.751C277.189 180.5 275.262 180.874 273.068 180.874ZM273.068 176.851C274.948 176.851 276.547 176.446 277.863 175.635C279.211 174.793 280.229 173.67 280.919 172.267C281.64 170.863 282 169.288 282 167.542C282 165.764 281.64 164.174 280.919 162.77C280.198 161.367 279.164 160.26 277.816 159.449C276.5 158.638 274.917 158.232 273.068 158.232C271.25 158.232 269.667 158.638 268.32 159.449C266.972 160.26 265.938 161.367 265.217 162.77C264.496 164.174 264.135 165.764 264.135 167.542C264.135 169.288 264.48 170.863 265.17 172.267C265.891 173.67 266.909 174.793 268.226 175.635C269.573 176.446 271.187 176.851 273.068 176.851Z" fill="white"/>
<path d="M293.743 180.032V155.051H297.316V165.343H297.128C297.128 161.694 297.927 159.028 299.526 157.344C301.156 155.628 303.585 154.771 306.813 154.771H307.659V158.794H306.061C303.553 158.794 301.626 159.464 300.278 160.805C298.93 162.115 298.256 164.018 298.256 166.513V180.032H293.743Z" fill="white"/>
<path d="M330.797 180.032L321.347 168.384H317.21L328.728 155.051H333.476L323.04 167.074L323.369 164.688L336.015 180.032H330.797ZM313.496 180.032V145.882H318.009V180.032H313.496Z" fill="white"/>
<path d="M157.154 231.185C155.055 231.185 153.205 230.749 151.607 229.875C150.008 228.971 148.755 227.677 147.846 225.993C146.937 224.309 146.451 222.25 146.388 219.818H147.282V230.343H141.311V196.193H148.833V213.549L147.047 215.794C147.141 213.206 147.626 211.038 148.504 209.292C149.413 207.514 150.651 206.189 152.218 205.316C153.785 204.411 155.572 203.959 157.578 203.959C159.333 203.959 160.915 204.286 162.326 204.941C163.768 205.565 164.99 206.47 165.993 207.655C166.996 208.809 167.764 210.181 168.296 211.771C168.861 213.362 169.143 215.093 169.143 216.964V217.993C169.143 219.864 168.861 221.595 168.296 223.186C167.764 224.776 166.964 226.18 165.899 227.396C164.865 228.581 163.611 229.517 162.138 230.203C160.665 230.858 159.004 231.185 157.154 231.185ZM155.18 224.917C156.465 224.917 157.578 224.605 158.518 223.981C159.489 223.357 160.242 222.484 160.774 221.361C161.307 220.207 161.574 218.913 161.574 217.479C161.574 216.013 161.307 214.734 160.774 213.643C160.242 212.551 159.489 211.709 158.518 211.116C157.578 210.493 156.465 210.181 155.18 210.181C154.052 210.181 152.986 210.446 151.983 210.976C150.98 211.506 150.165 212.27 149.538 213.268C148.943 214.235 148.645 215.42 148.645 216.824V218.555C148.645 219.896 148.959 221.049 149.585 222.016C150.244 222.952 151.074 223.669 152.077 224.168C153.08 224.667 154.114 224.917 155.18 224.917Z" fill="white"/>
<path d="M190.398 230.343V222.765H189.129V214.531C189.129 213.222 188.816 212.239 188.189 211.584C187.562 210.929 186.559 210.602 185.18 210.602C184.49 210.602 183.581 210.617 182.453 210.649C181.325 210.68 180.165 210.727 178.974 210.789C177.783 210.851 176.702 210.914 175.73 210.976V204.661C176.451 204.598 177.297 204.536 178.269 204.474C179.241 204.411 180.244 204.364 181.278 204.333C182.312 204.302 183.284 204.286 184.193 204.286C186.825 204.286 189.035 204.661 190.821 205.409C192.639 206.158 194.018 207.296 194.959 208.824C195.899 210.321 196.369 212.255 196.369 214.625V230.343H190.398ZM182.171 230.998C180.322 230.998 178.692 230.671 177.282 230.016C175.903 229.361 174.821 228.425 174.038 227.209C173.254 225.961 172.863 224.48 172.863 222.765C172.863 220.894 173.348 219.365 174.32 218.18C175.292 216.964 176.655 216.075 178.41 215.514C180.165 214.921 182.187 214.625 184.475 214.625H189.975V218.788H184.428C183.111 218.788 182.093 219.116 181.372 219.771C180.682 220.395 180.338 221.252 180.338 222.344C180.338 223.373 180.682 224.215 181.372 224.87C182.093 225.494 183.111 225.805 184.428 225.805C185.274 225.805 186.026 225.665 186.684 225.384C187.374 225.073 187.938 224.558 188.377 223.841C188.816 223.123 189.066 222.125 189.129 220.847L190.915 222.718C190.759 224.496 190.32 225.993 189.599 227.209C188.91 228.425 187.938 229.361 186.684 230.016C185.462 230.671 183.958 230.998 182.171 230.998Z" fill="white"/>
<path d="M213 231.138C209.333 231.138 206.465 230.39 204.396 228.893C202.328 227.396 201.231 225.291 201.106 222.578H207.781C207.907 223.388 208.392 224.121 209.239 224.776C210.116 225.4 211.417 225.712 213.141 225.712C214.457 225.712 215.538 225.494 216.385 225.057C217.262 224.589 217.701 223.934 217.701 223.092C217.701 222.344 217.372 221.751 216.714 221.315C216.056 220.847 214.88 220.519 213.188 220.332L211.166 220.145C208.063 219.833 205.728 218.976 204.161 217.572C202.626 216.169 201.858 214.375 201.858 212.192C201.858 210.384 202.312 208.871 203.221 207.655C204.13 206.438 205.384 205.518 206.982 204.895C208.612 204.271 210.461 203.959 212.53 203.959C215.852 203.959 218.532 204.692 220.569 206.158C222.606 207.592 223.672 209.682 223.766 212.426H217.09C216.964 211.584 216.526 210.883 215.773 210.321C215.021 209.729 213.909 209.432 212.436 209.432C211.276 209.432 210.351 209.651 209.662 210.087C208.972 210.524 208.628 211.116 208.628 211.865C208.628 212.582 208.925 213.128 209.521 213.502C210.116 213.876 211.088 214.142 212.436 214.297L214.457 214.485C217.623 214.828 220.083 215.701 221.838 217.104C223.593 218.508 224.471 220.395 224.471 222.765C224.471 224.48 224.001 225.977 223.06 227.256C222.12 228.503 220.788 229.47 219.064 230.156C217.341 230.811 215.319 231.138 213 231.138Z" fill="white"/>
<path d="M241.615 231.232C239.421 231.232 237.478 230.858 235.785 230.109C234.124 229.361 232.729 228.363 231.601 227.115C230.504 225.837 229.658 224.418 229.062 222.858C228.498 221.268 228.216 219.646 228.216 217.993V217.058C228.216 215.342 228.498 213.705 229.062 212.146C229.658 210.555 230.504 209.136 231.601 207.889C232.698 206.641 234.061 205.659 235.691 204.941C237.352 204.193 239.233 203.819 241.333 203.819C244.091 203.819 246.41 204.442 248.291 205.69C250.202 206.906 251.66 208.512 252.663 210.508C253.666 212.473 254.167 214.625 254.167 216.964V219.49H231.366V215.233H249.607L247.162 217.198C247.162 215.67 246.943 214.36 246.504 213.268C246.065 212.177 245.407 211.35 244.53 210.789C243.683 210.196 242.618 209.9 241.333 209.9C240.016 209.9 238.904 210.196 237.995 210.789C237.086 211.382 236.396 212.255 235.926 213.409C235.456 214.531 235.221 215.919 235.221 217.572C235.221 219.1 235.44 220.441 235.879 221.595C236.318 222.718 237.007 223.591 237.948 224.215C238.888 224.839 240.11 225.151 241.615 225.151C242.994 225.151 244.122 224.885 245 224.355C245.877 223.825 246.473 223.17 246.786 222.391H253.697C253.321 224.106 252.584 225.634 251.487 226.975C250.39 228.316 249.011 229.361 247.35 230.109C245.689 230.858 243.777 231.232 241.615 231.232Z" fill="white"/>
<path fill-rule="evenodd" clip-rule="evenodd" d="M34.0037 216.701L105.431 178.755L106.579 180.916L35.1517 218.861L34.0037 216.701Z" fill="white"/>
<path fill-rule="evenodd" clip-rule="evenodd" d="M34.0036 216.699L19.4949 175.405L21.8035 174.594L36.3122 215.888L34.0036 216.699Z" fill="white"/>
<path d="M97.8288 174.433C95.2472 178.825 96.7151 184.478 101.107 187.06C105.5 189.641 111.153 188.173 113.734 183.781C116.316 179.389 114.848 173.736 110.456 171.154C106.064 168.573 100.41 170.04 97.8288 174.433Z" fill="#0090FF"/>
<path d="M11.8927 171.083C9.31117 175.476 10.779 181.129 15.1712 183.711C19.5635 186.292 25.2168 184.824 27.7984 180.432C30.3799 176.04 28.9121 170.386 24.5198 167.805C20.1276 165.223 14.4743 166.691 11.8927 171.083Z" fill="#D8EBFB"/>
<path d="M28.6336 212.377C26.0521 216.769 27.5199 222.423 31.9121 225.004C36.3044 227.586 41.9577 226.118 44.5393 221.726C47.1208 217.334 45.653 211.68 41.2607 209.099C36.8685 206.517 31.2151 207.985 28.6336 212.377Z" fill="#73B4ED"/>
</svg>
