<svg width="854" height="487" viewBox="0 0 854 487" fill="none" xmlns="http://www.w3.org/2000/svg">
<path d="M1.22559 150.444C1.44795 150.47 1.68422 150.484 1.90658 150.497C1.62863 150.894 1.57303 151.557 2.04556 151.861C69.8255 195.656 138.161 238.046 209.777 269.891C244.605 285.377 280.086 298.359 316.082 308.122C334.038 312.984 352.064 317.249 370.339 319.355C389.782 321.607 409.323 322.27 428.752 324.84C468.43 330.085 507.859 341.716 546.856 352.433C585.381 363.017 623.878 373.668 662.486 383.616C701.637 393.71 740.843 403.5 780.076 412.971C799.408 417.634 818.74 422.218 838.1 426.722C843.326 427.94 848.718 430.139 854.152 432.034V6.2642C853.29 5.97277 852.443 5.6946 851.65 5.40316C846.341 3.45586 841.005 1.23037 835.487 0.674C827.732 -0.0943213 819.908 1.60128 812.403 4.06521C796.545 9.27125 781.508 17.948 766.234 25.4193C758.312 29.3006 750.071 32.864 741.524 32.8508C732.712 32.8508 724.026 30.1087 715.437 27.817C699.649 23.5912 684.028 22.9156 668.087 26.1743C633.551 33.2085 601.433 52.9067 566.591 58.3909C528.567 64.3653 490.139 61.4112 452.031 58.6823C433.102 57.3179 414.187 56.2714 395.244 55.6488C377.163 55.0527 358.887 54.5095 341.404 61.5569C325.338 68.0346 310.356 79.1223 293.623 82.6328C274.43 86.6466 255.209 89.9318 236.086 94.5683C216.351 99.3504 196.727 105.351 176.811 108.689C157.869 111.855 138.717 112.836 119.649 111.312C104.667 110.12 90.8947 107.193 76.3714 113.591C63.5575 119.234 51.6054 126.997 39.3752 134.441C27.8678 141.449 14.2896 150.338 1.23949 148.629C0.350022 148.51 0.350022 150.351 1.23949 150.47L1.22559 150.444Z" fill="#FEF1DC"/>
<path d="M849.232 253.664C843.381 254.711 838.99 253.439 834.417 249.836C828.274 245.001 823.48 239.477 815.294 237.755C801.646 234.88 787.554 242.073 774.448 235.436C768.958 232.668 763.858 225.66 757.228 225.62C750.21 225.567 743.497 230.23 736.729 231.634C730.864 232.853 725.583 231.264 720.191 229.104C712.338 225.965 704.264 224.415 695.744 224.561C679.581 224.826 663.473 228.362 647.491 230.376C634.052 232.072 620.445 232.191 608.021 226.349C600.905 223.011 594.859 218.282 589.717 212.546C584.45 206.677 579.822 200.213 573.54 195.245C567.773 190.688 563.131 191.298 556.487 193.51C548.816 196.067 541.172 198.756 533.153 200.133C526.343 201.312 519.477 201.445 512.598 200.888C502.508 200.08 493.586 200.915 483.663 202.902C475.838 204.478 467.875 206.24 459.814 205.843C452.768 205.498 446.875 202.889 440.899 199.497C433.547 195.325 426.751 191.404 417.828 192.304C409.559 193.139 401.582 196.358 393.688 198.703C380.262 202.69 366.656 209.459 352.3 209.327C337.874 209.181 330.855 196.04 318.097 192.172C310.412 189.84 302.323 193.523 294.721 190.9C288.592 188.794 284.742 183.402 279.072 180.607C271.553 176.898 263.757 180.674 256.238 182.17C249.344 183.548 244.341 181.972 237.92 179.733C231.722 177.574 225.857 176.368 219.228 176.779C210.972 177.282 202.787 178.806 194.601 179.852C186.276 180.925 177.826 181.747 169.418 181.217C161.955 180.74 154.756 178.62 147.334 177.799C139.371 176.911 131.49 177.309 123.499 177.481C115.564 177.653 108.142 175.56 100.568 173.6C93.5215 171.785 86.8505 169.467 80.1934 166.605C73.2028 163.598 66.2261 160.392 58.7351 158.67C44.865 155.491 30.578 157.717 17.0276 161.439C79.9155 201.776 143.457 240.338 209.791 269.839C244.619 285.324 280.1 298.306 316.096 308.069C334.052 312.931 352.078 317.196 370.353 319.303C389.796 321.541 409.337 322.217 428.766 324.787C468.444 330.033 507.873 341.663 546.87 352.38C585.395 362.965 623.892 373.615 662.5 383.563C701.651 393.658 740.857 403.447 780.09 412.919C799.422 417.582 818.754 422.165 838.114 426.669C843.34 427.888 848.732 430.087 854.166 431.981V252.459C852.554 252.922 850.928 253.32 849.26 253.624L849.232 253.664Z" fill="#FEECCF"/>
<path d="M0.0442937 503.726H854.124V352.95C832.958 347.955 812.472 340.166 792.334 332.125C777.088 326.045 761.884 319.806 746.305 314.52C730.544 309.168 714.353 305.857 697.704 304.307C664.418 301.22 630.883 303.313 597.569 300.214C564.409 297.127 531.388 291.338 499.311 282.741C485.525 279.045 472.155 274.17 458.382 270.514C444.79 266.911 431.017 263.97 417.481 260.181C405.167 256.75 390.172 252.962 380.401 244.59C376.079 240.881 373.522 235.741 369.756 231.581C366.059 227.501 361.319 224.865 355.802 223.659C342.571 220.785 328.687 223.54 315.331 223.885C300.766 224.256 285.924 223.143 271.72 219.964C257.753 216.837 244.758 211.26 231.096 207.286C215.197 202.663 198.409 202.716 181.94 202.928C164.553 203.153 146.889 203.564 130.045 198.782C114.938 194.49 100.526 188.171 86.4474 181.508C58.5682 168.34 31.3562 152.894 1.22561 144.748C0.836472 144.642 0.433434 144.549 0.0303955 144.443V503.713L0.0442937 503.726Z" fill="#FFE7C0"/>
</svg>
