<svg width="1920" height="1749" viewBox="0 0 1920 1749" fill="none" xmlns="http://www.w3.org/2000/svg">
<g clip-path="url(#clip0_224_381)">
<g filter="url(#filter0_d_224_381)">
<path d="M1560.13 0L1545.35 29.5599L1515.79 44.3398L1510.69 95.9551L1510.38 101.053L1507.7 109.145V194.013L1499.74 202.105L1483.69 234.201V271.063H1446.83L1414.74 287.11L1398.18 286.601H1330.24L1313.68 286.058L1304.9 294.371L1285.43 303.158L1261.17 351.693L1212.63 375.96L1183.92 375.503H1140.29L1111.58 375.032L1091.7 384.334L1029.66 385.081L1010.53 389.791L1003.68 397.364L1000.16 404.211L990.408 424.329L989.648 484.385L924.435 490.302L909.474 498.415L906.145 501.934L904.912 505.263L900.056 514.681L895.468 592.31L817.977 596.759L808.421 601.675L804.914 602.808L801.846 606.316L794.087 620.649L788.495 687.443L727.154 687.583L707.368 697.101L685.685 685.685L628.143 685.541L633.172 633.172L621.05 606.316L618.592 594.039L611.25 510.197L610.431 505.263L612.606 498.973L606.316 453.16L594.565 493.512L524.26 486.266L505.263 493.607L483.592 483.592H425.882L414.568 414.568L408.541 404.211L407.358 401.063L404.211 384.26L360.372 346.996L345.297 303.158L310.008 296.308L303.158 292.805L282.658 282.658L221.334 283.93L222.626 222.626L212.474 202.105L212.436 191.774L202.105 191.812L194.842 194.842L153.873 202.105L180.244 223.967L181.562 282.615L189.036 303.158L194.676 310.587L202.105 318.7L233.771 334.824L270.263 336.053L271.394 372.447L287.507 404.211L294.284 413.084L303.158 448.897L343.835 464.586L357.047 505.263L394.988 514.486L404.211 516.576L426.837 527.889H482.637V583.69L493.95 606.316L495.332 616.247L505.263 681.649L520.542 692.09L530.982 707.368L591.444 722.24L606.316 729.909L645.06 746.113L668.729 746.008L683.218 784.271L699.889 808.421L704.861 810.929L707.368 811.523L711.033 812.086L803.767 813.075L808.421 814.079L822.533 822.533L883.319 834.575V883.32L895.218 909.474L880.997 937.95V982.05L836.788 982.159L808.421 996.377L799.128 1001.23L787.097 1010.53L765.614 1053.33L765.557 1068.71H750.233L707.368 1090.11L668.251 1072.46H645.433L639.116 1043.33L619.16 1010.53L610.968 1005.87L606.316 1005L600.412 1004.62L505.327 1010.46L505.263 1010.46L505.137 1010.4L415.606 999.131L404.211 978.61L390.83 997.146L365.402 1010.53L342.429 1049.8L303.158 1069.83L285.41 1093.83L224.576 1089.11L202.105 1096.52L191.268 1100.74L182.157 1111.58L164.743 1148.94V1175.27L133.929 1179.76L101.053 1198.59L81.8685 1193.45L17.4451 1212.63L9.02354 1221.66L0 1224.8" stroke="#EFF6FC" stroke-width="4" stroke-dasharray="8 8" shape-rendering="crispEdges"/>
</g>
<g filter="url(#filter1_d_224_381)">
<path d="M310.212 0L313.72 10.5618L316.277 87.9339L327.7 101.053L309.64 107.534L303.158 111.422L292.827 111.383L292.865 101.053L291.029 88.9236L293.443 9.71486L291.17 0" stroke="#EFF6FC" stroke-width="4" stroke-dasharray="8 8" shape-rendering="crispEdges"/>
</g>
<g filter="url(#filter2_d_224_381)">
<path d="M1678.71 0L1656.41 39.5713V61.4813L1645.93 101.053L1667.67 151.276L1717.89 184.17L1722.25 197.749L1739.01 202.105L1721.61 205.824L1717.89 206.839L1708.38 211.621L1632.15 217.412L1619.45 300.546L1618 303.158L1617.74 304.059L1615 306L1612.79 307.205L1536.49 323.862L1515.79 317.89L1486.33 332.622H1444.2V374.747L1429.47 404.211L1420.07 409.546L1414.74 411.95L1399.26 419.69H1329.16V489.784L1321.42 505.263L1319.37 510.954L1313.68 516.067L1292.08 526.871H1234.24V584.708L1223.44 606.316L1221.59 615.27L1212.63 626.206L1172.85 646.095H1151.36V667.589L1131.47 707.368L1123.81 719.604V796.186L1120.41 808.421L1123.68 820.526V897.369L1130.79 909.474L1149.44 947.338V972.662L1175.56 973.453L1212.63 992.552L1221.14 1002.01L1226.79 1010.53L1239.13 1037.03L1240.16 1084.05L1297.51 1095.4L1313.68 1105.01L1321.78 1103.49L1355.26 1111.58L1340.18 1138.07L1350.92 1175.4L1344.7 1212.63L1335.97 1234.91L1313.68 1269.07L1283.94 1283.94L1269.07 1313.68L1254.27 1355.33V1373.09L1245.63 1414.74L1268.48 1459.94L1313.68 1482.79L1344.63 1484.84H1383.79L1414.74 1486.65L1463.93 1463.93L1492.58 1414.74L1494.48 1393.43L1494.79 1334.68L1496.4 1313.68L1496.27 1294.17L1515.65 1212.77L1515.65 1212.63L1515.72 1212.56L1515.79 1212.58L1515.84 1212.58L1517.17 1212.63L1515.96 1212.8L1537.53 1291.94L1530.26 1313.68L1529.92 1327.81L1530.17 1400.35L1529.84 1414.74L1536.04 1434.99L1539.85 1491.73L1554.95 1515.79L1573.02 1559.61L1616.84 1581.39L1637.24 1596.44L1692.5 1616.84L1702.29 1632.45L1717.89 1639.36L1752.54 1683.25L1788.44 1717.89L1798.61 1738.23L1818.95 1748.4L1845.45 1744.4L1919.97 1717.89L1920 1717.89L1920 1717.89" stroke="#EFF6FC" stroke-width="4" stroke-dasharray="8 8" shape-rendering="crispEdges"/>
</g>
<path d="M338.294 0L354.728 49.4826L381.894 78.7364L401.327 101.053L329.085 126.979L303.158 142.528L261.835 142.376L261.986 101.053L254.642 52.5365L254.768 48.3897L243.447 0" stroke="#D8EBFB" stroke-width="4" stroke-dasharray="8 8"/>
<path d="M1502.91 0L1502 13.7852L1495.4 80.6627L1494.15 101.053L1483.42 133.421V169.737L1451.6 202.105L1439.31 226.68L1414.74 238.967L1378.98 237.867L1347.44 235.865L1313.68 234.759L1278.53 268.008L1222.47 293.323L1212.63 298.856L1208.42 298.944L1116.81 297.927L1111.58 298.029L1105.74 297.323L1094.53 303.158L1043.1 335.728L1010.53 343.746L981.82 375.504L967.049 404.211L948.255 442.992L909.474 464.021L889.428 485.217L882.002 505.263L856.97 553.812L808.421 578.784L787.614 585.508L769.415 606.316L747.625 646.572L707.368 665.938L668.31 645.374L650.68 606.316L643.28 569.352L640.677 539.624L634.978 505.263L650.12 461.459L647.981 445.876L679.394 432.185L707.368 411.293L711.701 408.543L713.336 404.211L712.898 398.681L707.368 396.984L687.032 383.874L642.623 367.903L636.786 333.628L621.271 303.158L616.546 292.928L606.316 276.766L596.693 293.536L591.78 303.158L586.838 322.635L580.384 378.279L570.827 404.211L544.521 443.468L505.263 458.638L468.039 441.435L446.376 404.211L434.861 373.56L425.698 324.645L419.57 303.158L412.128 295.24L404.211 292.294L387.899 286.847L330.593 275.723L303.158 261.693L263.299 241.964L243.581 202.105L243.428 160.782L202.105 160.934L173.054 173.054L120.85 182.308L101.053 188.176L93.2313 194.284L88.5566 202.105L89.0947 214.063L101.053 240.97L133.565 270.646L145.394 303.158L169.868 335.395L202.105 370.601L224.375 381.94L235.672 404.211L264.897 442.472L272.977 475.082L285.594 505.263L290.696 517.725L303.158 526.845L331.289 533.394L367.321 542.153L404.211 550.515L441.411 569.115L460.011 606.316L465.539 646.04L469.406 671.512L474.508 707.368L482.008 730.624L505.263 749.188L548.821 764.863L583.828 785.933L606.316 797.53L613.995 800.742L619.296 808.421L677.841 837.948L707.368 844.953L750.526 851.578L765.108 851.734L808.421 861.082L838.684 879.211L852.451 909.474L837.787 938.839L808.421 953.558L771.005 973.11L722.562 1010.53L717.485 1020.64L707.368 1025.69L696.917 1020.98L690.559 1010.53L636.827 980.015L606.316 974.289L567.594 971.805L542.44 973.35L505.263 970.225L463.452 951.285L431.823 909.474L422.627 891.058L404.211 884.85L379.069 884.332L357.6 909.474L333.367 939.682L303.158 959.369L279.348 986.716L259.759 1010.53L232.795 1041.22L202.105 1051.34L158.755 1068.23L122.312 1111.58L115.553 1126.08L101.053 1134.39L83.0647 1129.57L68.6455 1111.58L47.367 1064.21L44.3397 1054.87L27.5914 1010.53L14.9798 995.547L0 986.449" stroke="#D8EBFB" stroke-width="4" stroke-dasharray="8 8"/>
<path d="M1920 1634.74L1904.45 1632.4L1877.38 1616.84L1838.27 1597.52L1818.95 1593.03L1772.46 1570.35L1767.03 1567.71L1717.89 1543.68L1699.04 1534.64L1675.3 1515.79L1643.21 1489.42L1616.84 1467.56L1594.1 1437.47L1587.15 1414.74L1587.81 1385.71L1590.11 1340.41L1590.76 1313.68L1597.3 1294.14L1616.84 1281.55L1652.39 1248.18L1670.96 1212.63L1670.57 1165.31L1717.89 1164.28L1747.37 1141.06L1790.53 1111.58L1753.05 1076.43L1717.89 1062.39L1694.35 1088.03L1664.48 1111.58L1664.08 1158.82L1616.84 1157.8L1567.03 1162.82L1565.66 1162.76L1515.79 1166.65L1472.96 1154.41L1455.55 1111.58L1461.19 1065.13L1451.52 1047.31L1483.58 1010.53L1427.05 998.216L1414.74 972.577L1404.7 1000.49L1396.83 1010.53L1351.04 1047.88L1313.68 1054.9L1285.84 1038.37L1272.87 1010.53L1248.86 974.296L1212.63 934.033L1196.42 925.683L1188.44 909.474L1160 861.055V856.84L1146.92 808.421L1160.52 759.479V756.311L1191.14 707.368L1198.3 693.04L1212.63 685.875L1248.45 642.132L1255.85 606.316L1275.13 567.757L1313.68 548.478L1336.45 528.025L1344.64 505.263L1368.01 458.534L1414.74 435.17L1436.08 425.553L1473.66 404.211L1487.71 376.127L1515.79 362.086L1548.48 371.517L1575.59 404.211L1604.46 416.597L1616.84 421.668L1628.59 415.955L1630.27 404.211L1633.79 387.262L1639.29 325.61L1645.58 303.158L1671.49 256.757L1717.89 233.439L1742.51 226.72L1808.42 212.632L1818.95 210.014L1823.93 207.089L1825.85 202.105L1823.16 197.891L1818.95 196.164L1805.35 188.506L1746.73 173.27L1726.24 109.397L1721.18 101.053L1721.05 97.8997L1729.54 11.6458L1729.18 0" stroke="#D8EBFB" stroke-width="4" stroke-dasharray="8 8"/>
<path d="M1920 1195.62L1906.6 1199.23L1905.94 1212.63L1909.06 1223.57L1920 1228.13" stroke="#73B4ED" stroke-width="4" stroke-dasharray="8 8"/>
<path d="M192.916 0L191.971 10.1345L202.105 43.9882L218.355 84.8031L220.815 101.053L220.746 119.694L202.105 119.762L170.003 133.155L145.695 145.695L101.053 158.926L76.8075 177.86L62.3167 202.105L63.9846 239.173L85.5158 287.621L87.0799 303.158L92.3946 311.816L101.053 323.6L135.275 369.988L166.332 404.211L181.254 425.062L202.105 434.401L234.306 473.062L247.768 505.263L263.859 544.562L303.158 573.322L329.921 579.553L390.57 592.675L404.211 595.767L411.243 599.283L414.759 606.316L416.464 618.569L425.243 686.336L428.235 707.368L439.671 742.829L434.184 778.447L489.694 808.421L432.271 836.482L404.211 827.024L385.984 826.648L371.548 808.421L348.358 763.221L303.158 725.79L286.998 723.528L281.556 707.368L231.97 677.504L202.105 675.889L178.888 684.152L171.425 707.368L170.342 739.131L182.801 789.117L181.596 808.421L184.153 826.373L202.105 833.111L240.908 870.671L258.072 909.474L232.08 939.448L202.105 976.09L160.306 968.727L141.832 969.747L101.053 956.954L80.3546 930.172L35.8912 909.474L14.5054 894.968L0 886.282" stroke="#73B4ED" stroke-width="4" stroke-dasharray="8 8"/>
<path d="M375.736 0L382.835 21.3752L404.211 44.3929L438.055 67.2087L431.598 101.053L423.22 120.062L404.211 130.774L354.771 152.665L348.381 156.883L303.158 184.004L284.99 183.937L285.057 202.105L291.048 214.215L303.158 220.21L340.211 239.159L356.907 249.409L404.211 265.206L431.87 275.499L457.866 303.158L468.384 340.037L491.743 390.69L496.822 404.211L499.927 409.546L505.263 412.012L510.891 409.838L514.661 404.211L520.147 389.327L543.432 341.326L553.116 303.158L571.098 267.94L606.316 206.563L643.757 265.717L661.051 303.158L676.678 333.849L707.369 353.633L746.07 365.509L749.134 404.211L737.688 434.53L707.369 453.778L677.895 475.79L667.707 505.263L673.349 539.283L685.886 584.833L690.187 606.316L695.53 618.154L707.369 624.387L719.57 618.517L726.174 606.316L764.547 562.442L808.421 548.263L836.816 533.658L851.457 505.263L867.138 462.928L909.474 418.163L918.521 413.257L922.905 404.211L937.139 376.545L949.96 343.644L985.211 303.158L996.279 288.91L1010.53 220.405L1057.21 256.477L1062.27 253.845L1111.58 259.809L1155.79 258.947L1168.56 259.089L1212.63 258.174L1248.51 237.986L1285.9 202.105L1285.27 173.695L1278.59 136.146L1278.03 101.053L1292.35 79.7201L1313.68 22.4909L1335.66 79.0736L1339.69 101.053L1355.26 142.632L1350.27 165.516L1380.31 167.677L1414.74 188.207L1458.13 144.444L1472.51 101.053L1475.01 60.2727L1477.15 38.6438L1479.69 0" stroke="#73B4ED" stroke-width="4" stroke-dasharray="8 8"/>
<path d="M496.671 909.474L500.371 914.366L505.263 916.582L513.023 917.234L583.889 931.9L606.316 933.339L635.695 938.853L681.288 935.554L707.368 945.057L727.964 930.069L774.33 909.474L724.662 892.181L707.368 889.526L681.217 883.322L635.765 880.025L606.316 869.191L560.192 863.35L540.85 873.887L505.263 839.405L488.099 892.31L496.671 909.474Z" stroke="#73B4ED" stroke-width="4" stroke-dasharray="8 8"/>
<path d="M465.82 0L479.779 25.484L505.263 15.8831L516.411 11.1478L519.006 0" stroke="#0621A4" stroke-width="4" stroke-dasharray="8 8"/>
<path d="M791.881 303.158L788.717 322.862L808.421 315.381L821.012 315.749L826.966 303.158L814.618 296.961L808.421 296.095L801.796 296.533L791.881 303.158Z" stroke="#0090FF" stroke-width="4" stroke-dasharray="8 8"/>
<path d="M986.097 101.053L991.273 120.306L1010.53 191.463L1032.69 123.218L1032.36 101.053L1024.16 87.4201L1010.53 82.8037L998.124 88.6501L986.097 101.053Z" stroke="#0090FF" stroke-width="4" stroke-dasharray="8 8"/>
<path d="M1920 1285.58L1871.81 1265.49L1839.74 1292.89L1867.75 1261.43L1853.83 1212.63L1855.62 1175.96L1818.95 1164.76L1790.8 1184.48L1755.62 1212.63L1762.19 1256.93L1744.57 1287.01L1797.83 1313.68L1745.13 1340.92L1717.89 1403.17L1716.7 1413.54L1716.57 1414.74L1717.29 1415.34L1717.89 1415.83L1719.96 1416.8L1790.15 1443.53L1818.95 1462.48L1863.95 1470.78L1876.12 1471.91L1920 1478.84" stroke="#73B4ED" stroke-width="4" stroke-dasharray="8 8"/>
<path d="M1920 1132.56L1891.29 1140.29L1888.76 1111.58L1856.45 1074.07L1837.17 1028.75L1827.43 1010.53L1822.73 1006.74L1818.95 1003.3L1811.67 1003.24L1731.2 997.218L1717.89 997.121L1705.63 998.257L1699.43 1010.53L1659.65 1053.33L1616.84 1088.23L1566.92 1060.45L1556.5 1010.53L1549.72 976.594L1515.79 949.597L1489.26 936L1470.68 909.474L1439.54 884.672L1414.74 878.575L1383.61 878.344L1355.99 909.474L1342.22 938.007L1313.68 972.166L1289.82 933.339L1268.74 909.474L1248.64 873.467L1212.63 864.642L1188.72 832.332L1182.26 808.421L1188.87 784.656L1212.63 753.778L1255.19 749.932L1309.15 707.368L1310.9 704.589L1295.25 624.745L1299.06 606.316L1303.94 596.567L1313.68 591.693L1359.21 550.788L1375.6 505.263L1388.65 479.174L1414.74 466.129L1457.42 446.896L1493.71 426.29L1515.79 414.592L1533.72 422.14L1579.34 441.715L1616.84 457.069L1652.4 439.773L1657.51 404.211L1667.89 354.203L1668.54 352.508L1682.37 303.158L1695.1 280.362L1717.89 268.906L1765.01 256.044L1770.23 254.442L1818.95 242.326L1844.29 227.451L1854.07 202.105L1840.38 180.674L1818.95 171.889L1773.63 146.37L1746.13 101.053L1745.03 73.9181L1749.22 31.3281L1748.25 0" stroke="#73B4ED" stroke-width="4" stroke-dasharray="8 8"/>
<path d="M0 727.822L31.0554 738.424L62.8015 745.62L101.053 764.187L115.388 721.704L115.877 707.368L122.9 685.521L101.053 662.678L66.0118 641.357L61.7162 606.316L67.1587 572.422L101.053 552.593L140.28 567.089L162.088 606.316L182.579 625.842L202.105 618.893L215.401 619.612L245.763 606.316L216.002 592.419L215.376 518.534L209.942 505.263L207.632 499.737L202.105 493.101L180.077 483.234L127.591 478.725L101.053 421.567L95.0591 410.204L96.858 404.211L86.4244 389.582L56.0159 348.195L28.3702 303.158L25.7752 277.383L37.7766 239.882L36.0768 202.105L60.3837 161.436L101.053 129.677L123.132 123.132L165.934 101.053L172.832 71.7796L163.039 39.0662L166.682 0" stroke="#0090FF" stroke-width="4" stroke-dasharray="8 8"/>
<path d="M700.435 505.263L701.421 511.21L707.368 532.817L718.959 516.854L789.983 523.701L808.421 517.742L816.661 513.504L820.91 505.263L828.259 485.426L834.147 429.937L857.467 404.211L842.614 370.017L808.421 369.018L782.913 378.702L784.933 404.211L770.688 441.944L775.698 472.541L732.014 480.618L707.368 496.263L702.216 500.111L700.435 505.263Z" stroke="#0090FF" stroke-width="4" stroke-dasharray="8 8"/>
<path d="M1293.94 0L1276.58 37.1008L1269.29 56.6608L1239.49 101.053L1239.92 128.346L1232.3 182.433L1232.74 202.105L1222.48 211.952L1212.63 217.492L1196.92 217.818L1130.69 221.217L1111.58 221.59L1094.2 219.487L1075.68 202.105L1074.52 165.05L1067.31 145.319L1066.64 101.053L1045.57 66.0083L1010.53 54.1415L978.644 69.1703L947.727 101.053L961.035 150.544L961.802 153.381L974.938 202.105L956.232 248.864L914.111 298.521L910.509 303.158L910.027 303.711L909.474 305.131L907.335 305.297L908.346 303.158L841.814 269.765L808.421 265.1L772.725 267.462L719.298 303.158L717.648 313.437L707.369 310.283L703.036 307.49L700.83 303.158L695.218 291.007L673.33 236.144L653.441 202.105L647.049 161.373L606.316 142.912L577.419 173.208L566.946 202.105L544.926 241.768L524.038 284.383L514.451 303.158L512.592 310.487L505.263 325.594L498.182 310.239L496.163 303.158L451.611 255.757L404.211 238.118L377.214 229.102L333.242 202.105L375.994 173.889L404.211 161.395L442.805 139.647L459.814 101.053L467.095 62.8848L505.263 48.5053L539.308 34.0444L547.232 0" stroke="#0090FF" stroke-width="4" stroke-dasharray="8 8"/>
<path d="M1456.46 0L1453.89 39.1523L1453.23 62.5602L1450.87 101.053L1441.87 128.19L1414.74 155.561L1380.59 135.199L1367.8 101.053L1359.42 55.3153L1353.34 39.6537L1343.02 0" stroke="#0090FF" stroke-width="4" stroke-dasharray="8 8"/>
<path d="M1600.14 1010.53L1603.02 1024.35L1616.84 1032.03L1628.69 1022.38L1639.7 1010.53L1663.02 964.348L1616.84 948.311L1595.97 989.652L1600.14 1010.53Z" stroke="#0090FF" stroke-width="4" stroke-dasharray="8 8"/>
<path d="M1767.32 0L1768.88 50.0713L1769.06 51.1661L1771.08 101.053L1789.16 130.84L1818.95 147.613L1857.6 163.457L1882.29 202.105L1864.66 247.813L1818.95 274.637L1796.11 280.318L1721.67 303.158L1719.04 304.308L1717.89 305.925L1690.45 376.763L1684.75 404.211L1679.19 442.913L1717.89 472.954L1729.6 493.561L1733.53 505.263L1728.82 516.188L1717.89 524.917L1697.56 525.593L1655.97 505.263L1641.75 480.357L1616.84 492.47L1595.18 483.603L1553.98 467.075L1515.79 450.998L1480.32 469.792L1429.62 490.385L1414.74 497.088L1409.29 499.813L1406.56 505.263L1401.96 518.038L1401.52 593.094L1384.95 606.316L1388.49 632.566L1386.36 678.987L1389.13 707.368L1378.66 743.446L1371.91 765.592L1359.98 808.421L1385.34 837.815L1414.74 838.034L1454 847.687L1478.68 845.532L1515.79 869.099L1543.33 881.929L1595.31 887.939L1616.84 894.102L1625.46 900.853L1636 909.474L1669.09 958.278L1717.89 953.757L1762.5 954.082L1775.08 953.336L1818.95 953.703L1848.71 980.76L1885.68 1010.53L1897.64 1032.89L1920 1057.91" stroke="#0090FF" stroke-width="4" stroke-dasharray="8 8"/>
<path d="M0 438.229L22.0294 426.24L28.6412 404.211L16.7175 387.493L0 358.912" stroke="#154ED9" stroke-width="4" stroke-dasharray="8 8"/>
<path d="M0 36.5478L31.1897 31.1897L36.8846 0" stroke="#0621A4" stroke-width="4" stroke-dasharray="8 8"/>
<path d="M140.448 0L137.088 36.0351L101.053 99.6338L99.1111 99.1111L99.6538 101.053L40.023 141.076L24.4503 177.655L9.8369 202.105L10.3004 212.406L0 244.591" stroke="#154ED9" stroke-width="4" stroke-dasharray="8 8"/>
<path d="M386.624 202.105L397.52 208.796L404.211 211.03L418.425 216.319L487.227 220.142L505.263 240.506L517.894 214.736L524.907 202.105L536.072 171.296L539.182 134.971L570.334 101.053L539.902 66.4144L505.263 81.1275L490.791 86.58L488.03 101.053L474.451 131.865L477.748 174.59L427.323 178.993L404.211 192.017L397.218 195.113L386.624 202.105Z" stroke="#154ED9" stroke-width="4" stroke-dasharray="8 8"/>
<path d="M575.458 0L566.096 40.2193L606.316 77.2016L643.84 63.5283L662.674 56.3587L707.368 40.8864L739.275 69.1463L742.21 101.053L740.33 134.014L707.368 194.624L703.089 197.826L703.761 202.105L705.091 204.382L707.368 210.09L713.819 208.556L774.154 236.373L808.421 234.105L845.617 239.301L876.392 235.187L909.474 244.114L928.754 221.385L936.467 202.105L930.735 180.844L909.474 101.488L909.296 101.231L909.294 101.053L909.319 100.898L909.474 100.859L958.664 49.1899L962.326 48.2L1010.53 25.4793L1049.05 38.5247L1084.13 27.4491L1084.87 74.342L1100.93 101.053L1101.09 111.543L1111.58 140.247L1138.33 127.799L1162.72 101.053L1195.5 83.9232L1212.63 87.908L1249.73 37.0972L1267.08 0" stroke="#154ED9" stroke-width="4" stroke-dasharray="8 8"/>
<path d="M1433.24 0L1432.1 17.363L1430.18 85.6138L1429.23 101.053L1425.62 111.937L1414.74 122.915L1401.04 114.748L1395.91 101.053L1391.69 78.0047L1389.5 25.2383L1382.93 0" stroke="#154ED9" stroke-width="4" stroke-dasharray="8 8"/>
<path d="M1786.4 0L1787.38 31.5724L1795.07 77.1752L1796.04 101.053L1804.69 115.31L1818.95 123.338L1856.72 138.82L1884.26 136.797L1893.72 175.821L1910.51 202.105L1904.55 217.556L1920 295.486" stroke="#154ED9" stroke-width="4" stroke-dasharray="8 8"/>
<path d="M1920 992.247L1874.4 955.073L1824.51 909.474L1820.77 907.649L1818.95 907.118L1815.53 906.061L1734.42 909.474L1718.82 910.399L1717.89 910.392L1716.88 910.486L1716.2 909.474L1661.54 864.773L1616.84 829.765L1600.25 825.016L1572.28 808.421L1539.89 784.319L1515.79 769.842L1475.37 747.786L1464.93 707.368L1460.11 661.995L1460.44 652.02L1456.67 606.316L1464.39 556.666L1464.4 554.927L1475.37 505.263L1504.12 493.589L1515.79 487.404L1528.36 492.695L1559.69 505.263L1581.63 540.47L1616.84 578.747L1647.87 575.291L1672.38 560.799L1717.89 559.284L1747.92 535.292L1760.87 505.263L1750.06 473.098L1717.89 416.454L1711 411.104L1711.99 404.21L1713.01 399.322L1717.89 386.705L1752.61 337.869L1808.87 313.231L1818.95 307.195L1821.99 306.199L1919.25 303.908L1920 303.754" stroke="#154ED9" stroke-width="4" stroke-dasharray="8 8"/>
<path d="M0 147.108L13.7523 114.805L34.2421 101.053L26.762 74.2908L0 78.8882" stroke="#0621A4" stroke-width="4" stroke-dasharray="8 8"/>
<path d="M79.6152 0L74.8267 26.2261L101.053 33.286L113.092 12.0388L114.214 0" stroke="#0621A4" stroke-width="4" stroke-dasharray="8 8"/>
<path d="M603.685 0L602.886 3.42917L606.316 6.58235L611.14 4.82441L625.785 0" stroke="#0621A4" stroke-width="4" stroke-dasharray="8 8"/>
<path d="M805.012 202.105L807.346 203.181L808.421 203.11L809.589 203.273L818.322 202.105L817.853 192.674L850.508 143.139L850.102 101.053L858.185 51.2888L808.421 31.8056L778.291 70.9225L781.063 101.053L779.408 130.066L805.468 199.153L805.012 202.105Z" stroke="#0621A4" stroke-width="4" stroke-dasharray="8 8"/>
<path d="M844.631 0L859.871 49.6025L909.474 36.9901L927.514 18.0405L994.268 0" stroke="#0621A4" stroke-width="4" stroke-dasharray="8 8"/>
<path d="M1151.48 0L1176.49 36.1434L1212.63 44.5514L1231.43 18.8007L1240.23 0" stroke="#0621A4" stroke-width="4" stroke-dasharray="8 8"/>
<path d="M1920 947.759L1898.91 930.565L1875.83 909.474L1837.62 890.802L1818.95 885.371L1784.04 874.563L1751.43 875.934L1717.89 843.996L1698.29 828.029L1673.11 808.421L1655.76 769.506L1616.84 735.055L1600.74 723.475L1572.22 707.368L1588.78 679.302L1616.84 682.202L1659.73 649.2L1684.91 606.316L1705.64 594.06L1717.89 593.653L1767.03 554.397L1788.21 505.263L1772.65 458.966L1771.12 452.037L1748.3 404.211L1779.8 365.06L1818.95 341.6L1847.91 332.119L1892.08 331.079L1920 325.343" stroke="#0621A4" stroke-width="4" stroke-dasharray="8 8"/>
<path d="M1920 72.8111L1894.98 76.0295L1831.24 88.7575L1818.95 90.5515L1805.87 13.0736L1805.47 0" stroke="#0621A4" stroke-width="4" stroke-dasharray="8 8"/>
</g>
<defs>
<filter id="filter0_d_224_381" x="-4.65869" y="-4.89441" width="1570.58" height="1235.59" filterUnits="userSpaceOnUse" color-interpolation-filters="sRGB">
<feFlood flood-opacity="0" result="BackgroundImageFix"/>
<feColorMatrix in="SourceAlpha" type="matrix" values="0 0 0 0 0 0 0 0 0 0 0 0 0 0 0 0 0 0 127 0" result="hardAlpha"/>
<feOffset/>
<feGaussianBlur stdDeviation="2"/>
<feComposite in2="hardAlpha" operator="out"/>
<feColorMatrix type="matrix" values="0 0 0 0 0.937255 0 0 0 0 0.964706 0 0 0 0 0.988235 0 0 0 1 0"/>
<feBlend mode="normal" in2="BackgroundImageFix" result="effect1_dropShadow_224_381"/>
<feBlend mode="normal" in="SourceGraphic" in2="effect1_dropShadow_224_381" result="shape"/>
</filter>
<filter id="filter1_d_224_381" x="285.024" y="-4.63037" width="50.1062" height="122.054" filterUnits="userSpaceOnUse" color-interpolation-filters="sRGB">
<feFlood flood-opacity="0" result="BackgroundImageFix"/>
<feColorMatrix in="SourceAlpha" type="matrix" values="0 0 0 0 0 0 0 0 0 0 0 0 0 0 0 0 0 0 127 0" result="hardAlpha"/>
<feOffset/>
<feGaussianBlur stdDeviation="2"/>
<feComposite in2="hardAlpha" operator="out"/>
<feColorMatrix type="matrix" values="0 0 0 0 0.937255 0 0 0 0 0.964706 0 0 0 0 0.988235 0 0 0 1 0"/>
<feBlend mode="normal" in2="BackgroundImageFix" result="effect1_dropShadow_224_381"/>
<feBlend mode="normal" in="SourceGraphic" in2="effect1_dropShadow_224_381" result="shape"/>
</filter>
<filter id="filter2_d_224_381" x="1114.34" y="-4.98193" width="810.299" height="1759.46" filterUnits="userSpaceOnUse" color-interpolation-filters="sRGB">
<feFlood flood-opacity="0" result="BackgroundImageFix"/>
<feColorMatrix in="SourceAlpha" type="matrix" values="0 0 0 0 0 0 0 0 0 0 0 0 0 0 0 0 0 0 127 0" result="hardAlpha"/>
<feOffset/>
<feGaussianBlur stdDeviation="2"/>
<feComposite in2="hardAlpha" operator="out"/>
<feColorMatrix type="matrix" values="0 0 0 0 0.937255 0 0 0 0 0.964706 0 0 0 0 0.988235 0 0 0 1 0"/>
<feBlend mode="normal" in2="BackgroundImageFix" result="effect1_dropShadow_224_381"/>
<feBlend mode="normal" in="SourceGraphic" in2="effect1_dropShadow_224_381" result="shape"/>
</filter>
<clipPath id="clip0_224_381">
<rect width="1920" height="1748.4" fill="white"/>
</clipPath>
</defs>
</svg>
