<svg width="1004" height="171" viewBox="0 0 1004 171" fill="none" xmlns="http://www.w3.org/2000/svg">
<path fill-rule="evenodd" clip-rule="evenodd" d="M209.361 168.679C189.877 168.676 170.997 161.952 155.942 149.656C140.887 137.359 130.59 120.25 126.806 101.248C123.023 82.2462 125.988 62.5279 135.196 45.4566C144.403 28.3854 159.283 15.0185 177.297 7.63617C195.311 0.253813 215.344 -0.6868 233.977 4.97478C252.611 10.6364 268.692 22.5494 279.477 38.6819C290.262 54.8145 295.084 74.1672 293.119 93.439C291.154 112.711 282.524 130.708 268.702 144.361C252.915 159.92 231.591 168.659 209.361 168.679Z" fill="#0090FF"/>
<path fill-rule="evenodd" clip-rule="evenodd" d="M217.074 75.3506L239.017 78.4182C239.623 76.2158 240.164 74.3149 240.77 72.1649L218.049 68.8088C220.608 59.632 222.955 50.7305 225.711 42.0781C226.834 39.1657 228.575 36.5277 230.814 34.3434C231.399 33.6855 232.135 33.1768 232.958 32.8597C233.782 32.5427 234.67 32.4265 235.548 32.5211C236.428 32.6102 237.273 32.9068 238.014 33.3863C238.755 33.8584 239.371 34.5016 239.808 35.261C240.743 36.6486 241.784 37.9634 242.92 39.1939C243.538 39.963 244.429 40.4675 245.41 40.604C246.391 40.7406 247.387 40.4987 248.195 39.9281C249.184 38.9842 249.157 36.808 249.236 35.1562C249.236 34.5007 248.498 33.7141 247.918 33.111C246.669 31.7893 245.162 30.7363 243.488 30.0169C241.814 29.2976 240.009 28.9274 238.186 28.929C229.759 28.562 223.68 32.862 218.999 39.2988C214.318 45.7357 212.234 53.1951 209.992 60.6152C209.333 62.8046 208.766 64.9808 208.133 67.3667L184.001 63.8927C183.724 66.0689 183.434 68.1009 183.157 70.2771L206.722 73.8823C205.68 78.3265 204.691 82.4822 203.663 86.7167L181.139 83.5966C180.836 85.9825 180.612 87.7786 180.322 89.8892L202.225 93.1798C202.278 93.7554 202.278 94.3346 202.225 94.9103C199.931 104.664 197.794 114.575 195.183 124.197C194.174 128.998 191.668 133.36 188.023 136.665C187.412 137.303 186.657 137.788 185.821 138.081C184.56 138.53 183.181 138.525 181.923 138.068C180.665 137.61 179.609 136.729 178.937 135.577C178.029 133.972 176.887 132.509 175.548 131.237C174.506 130.477 172.186 130.031 171.421 130.634C170.821 131.204 170.346 131.89 170.024 132.65C169.702 133.41 169.54 134.228 169.548 135.052C169.89 136.58 170.805 137.921 172.106 138.802C173.978 140.169 176.133 141.105 178.413 141.543C180.694 141.98 183.044 141.908 185.293 141.332C188.965 140.617 192.411 139.035 195.339 136.719C198.268 134.404 200.593 131.422 202.12 128.025C204.723 122.508 206.927 116.813 208.713 110.983C210.454 105.739 211.627 100.351 213.078 94.8578L236.036 98.1746C236.669 95.9984 237.236 93.9926 237.843 91.8557L214.304 88.4078C215.293 83.7932 216.151 79.7685 217.074 75.3506Z" fill="#FFEED2"/>
<mask id="mask0_171_5930" style="mask-type:alpha" maskUnits="userSpaceOnUse" x="0" y="12" width="129" height="145">
<path fill-rule="evenodd" clip-rule="evenodd" d="M123.631 119.976C118.234 107.033 115.888 93.0333 116.773 79.0496C117.658 65.0658 121.749 51.4687 128.734 39.2992C119.479 28.0178 107.006 19.7857 92.9556 15.6856C78.9051 11.5856 63.9353 11.8097 50.0153 16.3286C36.0954 20.8474 23.8773 29.4493 14.9684 41.0027C6.05946 52.5561 0.876918 66.5198 0.102502 81.0571C-0.671914 95.5943 2.99807 110.024 10.6297 122.448C18.2613 134.873 29.4971 144.709 42.8591 150.665C56.2211 156.62 71.0833 158.415 85.4909 155.813C99.8984 153.211 113.176 146.335 123.578 136.088C125.409 134.274 127.139 132.361 128.76 130.359C126.835 127.008 125.122 123.54 123.631 119.976Z" fill="white"/>
</mask>
<g mask="url(#mask0_171_5930)">
<path d="M72.6339 156.974C112.748 156.974 145.267 124.646 145.267 84.7662C145.267 44.8868 112.748 12.5581 72.6339 12.5581C32.5199 12.5581 0.000976562 44.8868 0.000976562 84.7662C0.000976562 124.646 32.5199 156.974 72.6339 156.974Z" fill="#E51A88"/>
<path d="M97.9594 67.4025C98.2701 67.0709 98.6185 66.9071 98.9544 66.7392C100.562 65.9374 102.292 65.6603 104.064 65.5847C105.634 65.5217 107.204 65.5973 108.761 65.8072C109.483 65.9038 110 65.6939 110.285 65.1733C110.554 64.6863 110.462 64.0482 109.987 63.536C109.215 62.7048 108.371 61.9449 107.422 61.3152C103.627 58.7879 99.5505 58.5822 95.2978 59.8458C94.2608 60.1523 93.2659 60.5679 92.3087 61.0759C91.7503 61.3698 91.7545 61.3656 91.6664 60.74C91.276 58.0196 90.4909 55.4377 88.9124 53.1497C86.7125 49.9633 83.6227 48.1749 79.8611 47.478C79.0593 47.3311 78.5471 47.5284 78.27 48.0616C77.9342 48.7123 78.1399 49.2916 78.5891 49.7912C80.197 51.588 81.4271 53.6199 82.4136 55.8114C82.8964 56.8903 83.1567 58.0196 83.2113 59.1993C83.2197 59.3336 83.2826 59.51 83.1399 59.5813C82.9846 59.6611 82.9048 59.4722 82.8041 59.3966C79.7898 57.138 76.5698 55.316 72.7956 54.6737C68.4254 53.9306 64.3363 54.7576 60.5202 56.9659C59.1012 57.7845 57.7494 58.7165 56.5236 59.808C55.961 60.3076 55.8267 60.7484 56.0618 61.332C56.3011 61.9281 56.7503 62.2472 57.4597 62.2136C58.6604 62.1506 59.8569 62.0247 61.0576 61.9617C64.71 61.7644 68.3456 61.8735 71.935 62.6544C74.3196 63.175 76.5698 64.044 78.5177 65.5763C78.6815 65.7065 78.9963 65.7862 78.9208 66.0549C78.862 66.2648 78.5681 66.2396 78.375 66.2942C75.3103 67.1002 72.3716 68.196 69.6386 69.8249C66.6957 71.5797 64.0844 73.7417 61.7419 76.2313C60.8603 77.1674 61.0786 78.2422 62.1701 78.5906C62.6529 78.7418 63.0139 78.5109 63.3792 78.2674C65.6881 76.735 68.1567 75.5344 70.8099 74.7451C73.9627 73.8089 77.1491 73.6662 80.3607 74.4806C80.8477 74.6024 80.9527 74.7577 80.7763 75.2573C78.1525 82.7678 75.8687 90.3833 73.6605 98.0239C71.9182 104.044 70.3691 110.115 69.0929 116.252C69.0089 116.66 69.1558 116.723 69.5001 116.765C71.7671 117.042 74.0467 117.189 76.3011 117.583C76.7461 117.663 77.1995 117.718 77.6361 117.839C78.0098 117.948 78.1105 117.801 78.1315 117.478C78.2029 116.504 78.2617 115.53 78.3498 114.556C78.7696 109.955 79.4245 105.388 80.3062 100.853C81.0996 96.7645 82.061 92.7174 83.2743 88.7376C84.286 85.4252 85.4321 82.1591 86.6328 78.9097C86.7042 78.7124 86.7839 78.5192 86.8553 78.3261C86.9854 77.9651 87.145 77.9315 87.4514 78.196C89.4581 79.934 90.8813 82.0835 91.8637 84.5268C92.7747 86.7896 93.2995 89.1406 93.4674 91.5755C93.5304 92.4823 93.5136 93.3891 93.5723 94.2918C93.6479 95.4379 94.6303 96.0676 95.5203 95.5554C95.9065 95.3329 96.1164 94.9719 96.2172 94.552C96.6874 92.5663 97.0526 90.5638 97.208 88.5277C97.569 83.8467 96.7923 79.3295 95.302 74.9088C95.2474 74.7451 95.1341 74.5562 95.2684 74.4176C95.3944 74.2917 95.5623 74.447 95.7008 74.489C97.4515 75.0096 98.9334 76.0213 100.361 77.1213C103.077 79.2161 105.138 81.8946 106.998 84.7325C108.127 86.4496 109.211 88.196 110.109 90.0516C110.436 90.7275 110.999 91.0088 111.637 90.8912C112.221 90.7821 112.519 90.3581 112.607 89.573C112.943 86.5881 112.943 83.6284 112.116 80.7065C110.823 76.1263 108.06 72.6838 104.047 70.1817C102.321 69.107 100.504 68.2547 98.5682 67.6334C98.3876 67.5746 98.2113 67.4991 97.9636 67.4067L97.9594 67.4025Z" fill="#FFEED2"/>
<path d="M37.27 76.7125C37.1273 76.935 36.9173 76.935 36.7452 76.998C33.3783 78.2323 30.5109 80.1634 28.3195 83.035C26.5941 85.302 25.7208 87.8965 25.406 90.705C25.2381 92.2038 25.3136 93.6983 25.427 95.1971C25.469 95.7512 25.5907 96.276 26.1533 96.5531C26.7956 96.8679 27.4295 96.7 27.8199 96.0493C28.4412 95.0207 29.0164 93.967 29.6167 92.9259C31.359 89.9074 33.5 87.2247 36.1953 84.9997C37.1692 84.1937 38.2608 83.5807 39.432 83.1105C39.5832 83.0518 39.7721 82.888 39.9106 83.0182C40.0408 83.1399 39.9442 83.3414 39.8896 83.5094C39.432 84.899 39.0794 86.3179 38.7981 87.7537C38.2272 90.6924 38.1558 93.6353 38.647 96.5909C38.8065 97.5522 38.9618 98.5136 39.2137 99.4582C39.4278 100.264 39.94 100.701 40.6327 100.646C41.3338 100.592 41.7956 100.092 41.8166 99.2357C41.8586 97.4893 41.9509 95.7428 42.3834 94.0468C43.1012 91.2172 44.134 88.5304 46.3044 86.4439C46.4052 86.3473 46.5101 86.255 46.6067 86.1542C46.8628 85.8897 46.9761 85.9695 47.1021 86.2928C48.0257 88.6059 48.8569 90.9485 49.5916 93.3289C51.2541 98.7109 52.5177 104.181 53.2776 109.769C53.6386 112.443 54.0291 115.117 54.2054 117.813C54.2264 118.165 54.3691 118.195 54.6714 118.144C56.1323 117.905 57.5933 117.674 59.0585 117.468C59.8855 117.351 60.7209 117.271 61.5522 117.195C62.3456 117.12 62.3288 117.132 62.1777 116.36C61.1659 111.234 59.8267 106.188 58.3909 101.167C56.6949 95.2432 54.9149 89.349 52.7948 83.5598C52.7528 83.4464 52.715 83.3289 52.673 83.2155C52.5471 82.888 52.6269 82.7243 52.9963 82.6236C54.7427 82.1534 56.5018 82.1324 58.286 82.3717C61.3758 82.7915 64.113 84.0761 66.6949 85.7554C67.6227 86.3599 68.3322 86.2676 68.7604 85.4447C69.0375 84.9158 68.9703 84.4666 68.4749 83.9208C66.7285 82.0064 64.8393 80.2684 62.6269 78.8872C60.1206 77.3171 57.4212 76.234 54.579 75.4825C54.4783 75.4573 54.3817 75.4237 54.2851 75.3943C54.2348 75.2138 54.3817 75.1844 54.4741 75.1172C56.4892 73.7151 58.7646 72.9888 61.1659 72.6025C63.4623 72.2331 65.7755 72.0946 68.0971 72.1701C69.1802 72.2037 70.2508 72.3549 71.3255 72.4598C71.7453 72.5018 72.1609 72.5354 72.5346 72.2793C73.3028 71.7545 73.3658 70.8771 72.6731 70.1718C72.1567 69.647 71.5396 69.2482 70.9519 68.8116C68.6555 67.1071 66.1282 65.9611 63.265 65.6546C61.2121 65.4363 59.2096 65.6924 57.2197 66.2507C54.8603 66.9098 52.799 68.0979 50.8427 69.5169C50.7335 69.5967 50.6453 69.7226 50.4522 69.6974C50.574 68.6941 50.7881 67.7201 51.2205 66.7965C52.0181 65.0962 53.0047 63.5261 54.2684 62.1323C54.6126 61.7545 54.9149 61.3431 54.7344 60.7721C54.5035 60.0416 53.8443 59.6512 53.0593 59.8023C47.8032 60.8099 44.071 64.6638 43.1054 70.0752C43.0341 70.4825 43.1348 71.0786 42.841 71.2549C42.5387 71.4313 42.1189 70.9779 41.7452 70.8225C38.8317 69.5967 35.851 69.3196 32.8031 70.197C30.851 70.7596 29.2137 71.8763 27.7989 73.312C27.2364 73.8788 27.1062 74.4791 27.4043 75.0123C27.7528 75.6294 28.3111 75.7386 28.9744 75.6672C31.0441 75.4489 33.1138 75.3523 35.1625 75.8435C35.9014 76.0198 36.6109 76.2885 37.2658 76.7125H37.27Z" fill="#FFEED2"/>
</g>
<mask id="mask1_171_5930" style="mask-type:alpha" maskUnits="userSpaceOnUse" x="289" y="12" width="130" height="145">
<path fill-rule="evenodd" clip-rule="evenodd" d="M406.701 44.5976C400.785 35.6525 392.942 28.1266 383.742 22.5643C374.541 17.002 364.211 13.5424 353.5 12.4358C342.789 11.3292 331.965 12.6032 321.81 16.1658C311.655 19.7284 302.424 25.4903 294.784 33.0349C292.948 34.8527 291.21 36.765 289.575 38.7638C297.511 52.6436 301.684 68.335 301.684 84.3004C301.684 100.266 297.511 115.957 289.575 129.837C301.36 144.11 318.196 153.355 336.625 155.671C355.053 157.987 373.673 153.199 388.661 142.29C403.648 131.381 413.864 115.181 417.209 97.0164C420.554 78.8522 416.775 60.104 406.648 44.6239L406.701 44.5976Z" fill="white"/>
</mask>
<g mask="url(#mask1_171_5930)">
<path d="M345.877 156.242C385.929 156.242 418.398 123.963 418.398 84.1452C418.398 44.3275 385.929 12.0488 345.877 12.0488C305.825 12.0488 273.356 44.3275 273.356 84.1452C273.356 123.963 305.825 156.242 345.877 156.242Z" fill="#C01DF9"/>
<path d="M373.073 84.1148C372.194 84.1148 371.596 84.0785 371.008 84.1148C369.73 84.2053 368.798 84.1148 368.055 82.6566C367.24 81.0625 365.347 80.6278 363.617 80.5553C361.008 80.4376 358.391 80.4648 355.773 80.5553C354.859 80.5825 353.962 81.0173 353.038 81.1622C352.386 81.2618 351.671 81.3433 351.055 81.1803C348.881 80.6187 346.771 80.4467 344.615 81.3161C344.135 81.5063 343.474 81.298 342.912 81.1984C341.816 80.9991 340.73 80.6097 339.625 80.5644C337.424 80.4648 335.214 80.4829 333.013 80.5463C330.568 80.6187 328.312 81.1441 327.062 83.6257C326.936 83.8793 326.474 84.0786 326.166 84.0967C325.052 84.151 323.938 84.1148 322.688 84.1148C322.797 82.7472 322.815 81.4339 323.032 80.1478C323.467 77.5393 324.028 74.9581 324.454 72.3496C324.508 72.0145 324.137 71.462 323.811 71.2446C322.217 70.194 320.559 69.243 318.956 68.2105C318.141 67.6852 317.399 67.0331 316.602 66.4806C315.56 65.756 314.129 66.4263 313.957 67.6943C313.884 68.2377 313.685 68.7902 313.767 69.3155C313.984 70.8642 313.133 71.9239 312.363 73.1104C310.189 76.4706 308.831 80.0934 308.541 84.1691C308.224 88.598 308.849 92.7915 310.859 96.7223C311.484 97.9359 312.508 98.9412 313.232 100.119C313.73 100.925 314.111 101.84 314.383 102.754C315.46 106.441 316.955 109.918 319.509 112.835C320.46 113.922 321.51 114.981 322.706 115.778C324.572 117.037 324.97 116.376 326.356 115.289C326.999 114.791 327.515 114.13 328.095 113.55C328.484 113.152 328.738 113.125 329.091 113.686C331.836 118.188 335.703 121.303 340.811 122.716C344.208 123.658 347.667 123.749 351.182 123.395C353.636 123.151 355.937 122.508 358.165 121.539C361.335 120.153 363.707 117.816 365.718 115.072C366.08 114.574 366.407 114.021 366.85 113.605C367.013 113.451 367.566 113.46 367.765 113.614C368.29 114.021 368.716 114.556 369.187 115.027C370.962 116.793 372.556 116.811 374.377 115.027C377.194 112.282 379.096 108.949 380.508 105.327C380.988 104.086 381.188 102.736 381.713 101.523C382.093 100.644 382.791 99.8922 383.37 99.1043C385.191 96.6498 386.396 93.9146 386.776 90.8895C387.048 88.7248 387.22 86.5421 387.22 84.3774C387.202 80.6731 385.934 77.3129 384.113 74.1157C383.244 72.5942 381.894 71.3805 381.613 69.4876C381.324 67.495 380.916 65.4934 380.291 63.5733C379.032 59.6787 376.786 56.3819 372.991 54.652C371.297 53.8822 370.147 52.9765 369.16 51.4187C367.439 48.7015 364.532 47.5966 361.597 46.6999C358.3 45.6855 354.904 45.2598 351.471 45.124C346.988 44.9519 342.496 44.5987 338.031 44.7345C333.801 44.8704 329.535 44.9881 325.351 45.9663C323.023 46.5097 320.65 46.8177 318.621 48.2034C316.448 49.6888 315.243 51.6632 315.768 54.4075C316.103 56.1827 316.312 57.9941 316.837 59.715C317.697 62.5317 319.69 64.5424 322.217 65.901C324.354 67.0512 326.619 67.966 328.883 68.8536C329.906 69.2521 331.057 69.4423 332.162 69.5238C334.526 69.6778 336.926 69.9133 339.271 69.7049C341.182 69.5419 343.03 68.7811 344.914 68.3101C347.215 67.7395 349.515 67.1418 351.843 66.6527C353.129 66.39 354.46 66.1364 355.755 66.218C359.795 66.4625 363.581 67.341 366.787 70.185C369.839 72.893 371.669 76.1536 372.457 80.0753C372.71 81.3524 372.855 82.6566 373.073 84.1057V84.1148ZM372.819 87.7286C372.728 88.0456 372.647 88.3444 372.547 88.6433C371.343 92.0941 369.287 95.0739 367.33 98.108C365.899 100.327 364.405 102.519 363.128 104.828C362.403 106.133 361.769 107.6 363.182 109.022C364.722 110.571 364.649 110.589 363.499 112.382C360.184 117.554 355.402 119.981 349.334 119.954C347.595 119.954 345.838 119.954 344.135 119.7C342.405 119.437 340.639 119.03 339.027 118.351C335.667 116.92 333.511 114.103 331.455 111.223C331.084 110.706 331.174 110.335 331.736 109.882C333.665 108.315 333.964 107.392 332.85 105.145C331.772 102.99 330.486 100.916 329.091 98.9412C326.981 95.9434 325.043 92.8549 323.521 89.5128C323.286 88.9875 323.222 88.3807 323.059 87.7014C324.092 87.7014 324.916 87.638 325.722 87.7376C326.012 87.7738 326.438 88.1271 326.492 88.4078C327.008 91.0163 328.693 92.5922 330.912 93.824C334.761 95.9615 340.367 94.7388 343.474 92.1122C344.389 91.3333 345.313 90.2917 345.657 89.1868C346.119 87.7104 346.01 86.0621 346.173 84.314C347.233 84.2416 348.401 84.1601 349.606 84.0786C349.606 85.0658 349.578 85.8447 349.606 86.6327C349.696 88.6705 350.258 90.5544 351.897 91.8677C354.542 93.9961 357.594 95.0376 361.008 94.8837C365.166 94.6935 368.725 92.393 369.413 87.7467H372.81L372.819 87.7286Z" fill="#FFEED2"/>
</g>
<path d="M493.283 126.714H484.229V48.8577H527.578V56.8457H493.283V85.3894H525.501V93.3241H493.283V126.714Z" fill="#070637"/>
<path d="M540.571 126.714V48.8577H549.624V126.714H540.571Z" fill="#070637"/>
<path d="M571.032 126.714V48.8577H580.085V118.619H614.647V126.714H571.032Z" fill="#070637"/>
<path d="M691.837 44.0326L668.031 126.714H644.339L617.362 44.0326H642.472L653.726 85.9388C654.141 87.5223 654.612 89.5582 655.14 92.0466C655.706 94.4972 656.215 96.9479 656.667 99.3985C657.157 101.849 657.459 103.847 657.572 105.393C657.723 103.847 658.006 101.868 658.42 99.4551C658.835 97.0421 659.288 94.6292 659.778 92.2162C660.305 89.7656 660.796 87.7485 661.248 86.165L672.728 44.0326H691.837Z" fill="#070637"/>
<path d="M750.334 126.714H701.245V44.0326H750.334V61.9601H723.584V74.9674H748.354V92.8949H723.584V108.504H750.334V126.714Z" fill="#070637"/>
<path d="M798.008 78.3041H833.693V122.868C829.433 124.339 824.551 125.545 819.046 126.488C813.542 127.393 807.773 127.845 801.741 127.845C793.786 127.845 786.811 126.299 780.816 123.208C774.821 120.116 770.146 115.422 766.791 109.126C763.435 102.792 761.757 94.7988 761.757 85.147C761.757 76.4755 763.416 68.9916 766.734 62.6953C770.052 56.3613 774.934 51.4788 781.381 48.0479C787.866 44.5793 795.803 42.845 805.19 42.845C810.356 42.845 815.257 43.3351 819.894 44.3154C824.532 45.2956 828.566 46.5398 831.997 48.0479L824.928 65.5795C821.949 64.1091 818.858 63.0157 815.653 62.2994C812.448 61.5453 808.998 61.1683 805.304 61.1683C800.365 61.1683 796.387 62.2805 793.371 64.505C790.392 66.7294 788.224 69.7079 786.867 73.4404C785.51 77.1353 784.831 81.226 784.831 85.7126C784.831 90.8401 785.548 95.1759 786.98 98.7199C788.451 102.226 790.581 104.903 793.371 106.75C796.198 108.56 799.611 109.465 803.607 109.465C804.927 109.465 806.529 109.371 808.414 109.182C810.337 108.994 811.788 108.768 812.769 108.504V95.5529H798.008V78.3041Z" fill="#070637"/>
<path d="M895.803 126.714L891.731 111.218H864.868L860.683 126.714H842.443L867.231 43.6933H892.919L920.234 126.714H895.803ZM887.094 92.8949L883.531 79.322C883.154 77.8516 882.607 75.7591 881.891 73.0446C881.174 70.2923 880.458 67.4646 879.742 64.5615C879.063 61.6208 878.535 59.2078 878.158 57.3227C877.819 59.2078 877.329 61.5453 876.688 64.3353C876.085 67.0876 875.444 69.821 874.765 72.5356C874.124 75.2502 873.559 77.5123 873.068 79.322L869.506 92.8949H887.094Z" fill="#070637"/>
<path d="M983.291 101.604C983.291 106.091 982.16 110.351 979.898 114.385C977.636 118.382 974.111 121.624 969.323 124.112C964.572 126.601 958.427 127.845 950.886 127.845C947.116 127.845 943.798 127.675 940.933 127.336C938.105 126.997 935.466 126.45 933.015 125.696C930.565 124.904 928.02 123.886 925.38 122.642V102.735C929.867 104.997 934.391 106.732 938.953 107.938C943.515 109.107 947.644 109.691 951.339 109.691C953.563 109.691 955.373 109.427 956.768 108.9C958.2 108.372 959.256 107.655 959.935 106.75C960.613 105.808 960.953 104.733 960.953 103.527C960.953 102.094 960.444 100.888 959.426 99.9075C958.445 98.8895 956.862 97.8339 954.675 96.7405C952.488 95.6471 949.604 94.2899 946.023 92.6687C942.969 91.236 940.197 89.7656 937.709 88.2575C935.258 86.7494 933.147 85.0339 931.375 83.1111C929.641 81.1506 928.302 78.8696 927.36 76.2681C926.417 73.6667 925.946 70.5939 925.946 67.0499C925.946 61.7339 927.247 57.285 929.848 53.7033C932.487 50.0838 936.145 47.3693 940.82 45.5595C945.532 43.7498 950.962 42.845 957.107 42.845C962.498 42.845 967.343 43.4482 971.641 44.6547C975.977 45.8612 979.86 47.2373 983.291 48.7831L976.448 66.0319C972.904 64.4107 969.417 63.1288 965.986 62.1863C962.555 61.206 959.369 60.7159 956.428 60.7159C954.506 60.7159 952.922 60.961 951.678 61.4511C950.471 61.9035 949.567 62.5256 948.963 63.3174C948.398 64.1091 948.115 65.014 948.115 66.0319C948.115 67.3138 948.605 68.4637 949.585 69.4817C950.603 70.4997 952.281 71.6119 954.619 72.8184C956.994 73.9871 960.217 75.5141 964.289 77.3992C968.323 79.2089 971.754 81.1694 974.582 83.2808C977.41 85.3544 979.559 87.8616 981.029 90.8024C982.537 93.7055 983.291 97.306 983.291 101.604Z" fill="#070637"/>
</svg>
